# xmcd
#
# Track frame offsets:
#	150
#	15559
#	36060
#	48755
#	64625
#	85452
#	99260
#	111200
#	128345
#	138700
#	154347
#
# Disc length: 2396
#
# Revision: 3
# Processed by: cddbd v1.5.1PL0 Copyright (c) Steve Scherf et al.
# Submitted via: CDmax 1.8
# Normalized: r1:TDELIM( - ),TSWAP
#
DISCID=85095a0b
DTITLE=Various Artist - Taste of Tennessee
DYEAR=1996
DGENRE=Country
TTITLE0=Dolly Parton - Tennessee Mountain Home
TTITLE1=Steve Warner - Like A River To The Sea
TTITLE2=Johnny Cash - Folsom Prison Blues
TTITLE3=Ricky Skaggs - Lovin' Only Me
TTITLE4=Marcus Hummon - One Of These Days
TTITLE5=Tammy Wynette - 'Til I Can Make It On My Own
TTITLE6=Fairfield Four - Standing In The Safety Zone
TTITLE7=CeCe Winans - He Is Always There
TTITLE8=Nashville Bluegrass Band - Boll Weevil
TTITLE9=Charlie Daniels Band - Boogie Woogie Fiddle Country Blues
TTITLE10=Ann Peebles - I Can't Stand The Rain
EXTD=(c) 1996 United States Postal Service
EXTT0=
EXTT1=
EXTT2=
EXTT3=
EXTT4=
EXTT5=
EXTT6=
EXTT7=
EXTT8=
EXTT9=
EXTT10=
PLAYORDER=
